<svg version="1.1" id="Layer_1" xmlns="http://www.w3.org/2000/svg" xmlns:xlink="http://www.w3.org/1999/xlink" x="0px" y="0px"
	 width="100%" viewBox="0 0 350 355" enable-background="new 0 0 350 355" xml:space="preserve">
<path fill="#8D9E51" opacity="1.000000" stroke="none" 
	d="
M196.000000,356.000000 
	C130.666672,356.000000 65.833359,356.000000 1.000026,356.000000 
	C1.000017,237.666702 1.000017,119.333397 1.000009,1.000074 
	C117.666618,1.000049 234.333237,1.000049 350.999878,1.000025 
	C350.999939,119.333260 350.999939,237.666519 350.999969,355.999878 
	C299.500000,356.000000 248.000000,356.000000 196.000000,356.000000 
M189.002716,256.631561 
	C190.156586,256.462463 191.306152,256.252716 192.464935,256.130066 
	C256.996368,249.300079 304.048401,187.639999 293.731659,123.415062 
	C283.769958,61.400063 228.174149,19.013865 165.744278,25.837545 
	C98.101273,33.231033 50.954266,98.834946 65.558167,165.244080 
	C78.131233,222.418289 128.413528,259.968689 189.002716,256.631561 
M76.517715,313.002716 
	C79.515533,312.996246 82.522614,313.139862 85.509460,312.955536 
	C95.009758,312.369202 100.597023,306.627228 98.903816,298.275391 
	C98.230301,294.953217 95.249931,292.098724 93.278252,288.965332 
	C100.699142,283.353882 98.502235,272.663513 90.893333,271.327271 
	C83.184387,269.973419 75.214386,270.106140 67.268356,269.581787 
	C67.268356,284.722076 67.268356,298.613953 67.268356,313.002716 
	C70.277359,313.002716 72.909782,313.002716 76.517715,313.002716 
M185.944397,298.494385 
	C185.944397,303.237030 185.944397,307.979706 185.944397,312.670258 
	C189.783035,312.670258 192.708969,312.670258 196.003525,312.670258 
	C196.170578,308.984344 196.323929,305.600342 196.543564,300.754181 
	C199.559311,305.273956 201.106903,309.811188 204.243347,311.675812 
	C207.436768,313.574249 212.194183,312.841858 216.266785,313.261444 
	C216.438065,312.791046 216.609344,312.320648 216.780624,311.850250 
	C214.025665,307.956451 211.405777,303.956879 208.468246,300.206055 
	C206.509460,297.704956 206.375793,295.739441 208.489441,293.233978 
	C211.214005,290.004364 213.568100,286.462189 216.117432,283.006287 
	C205.982986,278.925140 201.019226,284.565765 197.231583,292.629517 
	C196.824188,292.335693 196.416809,292.041870 196.009430,291.748047 
	C196.009430,283.921722 196.009430,276.095398 196.009430,268.346497 
	C192.306381,268.346497 189.389435,268.346497 185.944336,268.346497 
	C185.944336,278.289307 185.944336,287.892578 185.944397,298.494385 
M292.650177,299.157196 
	C294.560364,293.730255 296.470551,288.303314 298.402222,282.815369 
	C288.916107,280.707916 288.314026,281.050659 285.862305,289.221588 
	C284.850037,292.595245 283.774658,295.950012 282.727966,299.313385 
	C280.824921,296.456635 279.920868,293.665710 279.094879,290.851837 
	C276.337433,281.458038 276.347931,281.451599 266.263275,282.140747 
	C265.988464,282.159515 265.731354,282.437836 264.975159,282.886078 
	C268.289764,291.433899 271.643433,300.063629 274.982483,308.698944 
	C277.928680,316.318329 275.270630,320.083557 267.269165,319.648743 
	C265.093567,328.723999 269.034576,328.674286 275.650238,327.677979 
	C280.885376,326.889557 283.793091,322.764618 285.626251,318.108826 
	C287.998779,312.083191 290.111359,305.955200 292.650177,299.157196 
M178.099472,292.636292 
	C174.536880,280.655151 158.301682,276.448181 149.519791,285.392151 
	C144.122086,290.889435 144.103195,297.740967 146.223862,304.556854 
	C148.129349,310.681152 153.122101,313.296570 159.153259,313.942780 
	C172.471558,315.369751 179.777847,307.453156 178.099472,292.636292 
M114.870102,282.030487 
	C107.045753,285.816315 103.994164,291.773346 105.255371,300.799561 
	C106.285881,308.174805 110.766098,312.885773 118.272896,313.813782 
	C124.973289,314.642059 131.551666,313.913147 135.649429,307.694489 
	C139.715836,301.523468 139.790527,294.659851 136.396286,288.209351 
	C132.870193,281.508270 126.349648,280.643951 119.562912,281.047333 
	C118.252319,281.125244 116.963440,281.568481 114.870102,282.030487 
M243.254150,281.713470 
	C241.041260,281.956604 239.279068,282.178375 239.101913,285.335236 
	C238.894394,289.032867 240.442719,290.433472 244.331223,290.411255 
	C244.331223,298.016083 244.331223,305.250336 244.331223,312.622314 
	C248.163147,312.622314 251.367966,312.622314 255.109314,312.622314 
	C255.109314,305.000885 255.109314,297.762543 255.109314,290.434692 
	C257.524506,290.099548 259.421448,289.836334 261.424500,289.558380 
	C261.424500,286.984772 261.424500,284.749023 261.424500,282.389191 
	C259.180664,282.081238 257.262054,281.817932 255.394440,281.561584 
	C255.046707,275.629913 255.631439,275.129486 262.263458,275.411682 
	C263.542908,267.720337 261.851501,265.939758 254.363617,267.095215 
	C247.540985,268.147980 245.111160,271.390930 243.254150,281.713470 
M221.880859,298.496826 
	C221.880859,303.240265 221.880859,307.983704 221.880859,312.661713 
	C225.766739,312.661713 228.694595,312.661713 231.753174,312.661713 
	C231.753174,302.322723 231.753174,292.326324 231.753174,282.333801 
	C228.316772,282.333801 225.393143,282.333801 221.880737,282.333801 
	C221.880737,287.603088 221.880737,292.551544 221.880859,298.496826 
M231.946793,269.688538 
	C230.617889,269.129181 229.329163,268.240570 227.952515,268.072601 
	C223.944122,267.583588 221.288116,269.846130 221.269547,273.453339 
	C221.250931,277.064209 223.885345,279.271088 227.880722,278.991608 
	C232.362579,278.678101 233.709274,276.126007 231.946793,269.688538 
z"/>
<path fill="#37302D" opacity="1.000000" stroke="none" 
	d="
M188.543808,256.688782 
	C128.413528,259.968689 78.131233,222.418289 65.558167,165.244080 
	C50.954266,98.834946 98.101273,33.231033 165.744278,25.837545 
	C228.174149,19.013865 283.769958,61.400063 293.731659,123.415062 
	C304.048401,187.639999 256.996368,249.300079 192.464935,256.130066 
	C191.306152,256.252716 190.156586,256.462463 188.543808,256.688782 
M240.939926,212.395203 
	C240.006241,210.162201 239.586319,207.458221 238.047684,205.779770 
	C232.165222,199.362732 232.294617,197.852036 240.119034,193.429657 
	C245.991989,190.110260 248.078979,184.235931 246.404083,177.619720 
	C245.893433,175.602493 246.473373,172.912842 247.450043,170.985260 
	C251.311646,163.363907 255.641510,155.776199 252.612381,146.920029 
	C251.033279,142.303268 251.920776,139.415421 255.273285,135.975403 
	C261.399506,129.689209 259.933868,121.039795 252.251099,117.255920 
	C247.985687,115.155144 247.403748,112.069717 248.281433,108.234673 
	C249.181290,104.302635 251.322540,101.703239 255.650238,100.401291 
	C263.202881,98.129143 267.874512,90.763680 266.902893,84.065308 
	C266.079041,78.385612 260.557312,74.073921 253.220230,74.060249 
	C208.398392,73.976692 163.575409,73.855339 118.754875,74.111015 
	C103.621307,74.197334 92.669945,83.654373 90.372604,97.897598 
	C88.807800,107.599129 92.120537,116.290359 97.672745,124.119049 
	C99.792397,127.107811 101.185989,129.485275 99.220398,133.484756 
	C96.060608,139.914185 99.519150,147.423691 106.167442,150.513824 
	C107.968025,151.350739 109.947151,151.986008 111.478828,153.181961 
	C114.932327,155.878448 114.995865,161.021133 111.845482,163.532684 
	C104.609276,169.301529 104.093010,175.592361 110.019142,182.626663 
	C111.140091,183.957230 112.338783,186.207886 111.975014,187.648499 
	C108.933800,199.692230 114.004776,208.740021 122.353188,216.490753 
	C128.396805,222.101669 135.605118,223.397247 143.966949,223.224548 
	C171.781403,222.650116 199.615112,223.020981 227.441391,222.995209 
	C235.713486,222.987549 238.290924,221.051254 240.939926,212.395203 
z"/>
<path fill="#461615" opacity="1.000000" stroke="none" 
	d="
M76.029961,313.002716 
	C72.909782,313.002716 70.277359,313.002716 67.268356,313.002716 
	C67.268356,298.613953 67.268356,284.722076 67.268356,269.581787 
	C75.214386,270.106140 83.184387,269.973419 90.893333,271.327271 
	C98.502235,272.663513 100.699142,283.353882 93.278252,288.965332 
	C95.249931,292.098724 98.230301,294.953217 98.903816,298.275391 
	C100.597023,306.627228 95.009758,312.369202 85.509460,312.955536 
	C82.522614,313.139862 79.515533,312.996246 76.029961,313.002716 
M84.558556,304.484528 
	C87.179543,303.081024 88.970177,301.014587 87.348862,298.089661 
	C85.183540,294.183258 81.521461,294.632141 77.670135,295.508881 
	C77.670135,298.646576 77.670135,301.546814 77.670135,304.766205 
	C79.926781,304.766205 81.858574,304.766205 84.558556,304.484528 
M84.131294,278.863892 
	C82.124397,278.515167 80.117500,278.166412 77.708649,277.747833 
	C77.708649,281.189575 77.708649,283.878265 77.708649,288.006226 
	C80.880875,286.613800 83.536217,285.958527 85.398796,284.372375 
	C86.115273,283.762207 85.027023,281.032806 84.131294,278.863892 
z"/>
<path fill="#461616" opacity="1.000000" stroke="none" 
	d="
M185.944366,297.995117 
	C185.944336,287.892578 185.944336,278.289307 185.944336,268.346497 
	C189.389435,268.346497 192.306381,268.346497 196.009430,268.346497 
	C196.009430,276.095398 196.009430,283.921722 196.009430,291.748047 
	C196.416809,292.041870 196.824188,292.335693 197.231583,292.629517 
	C201.019226,284.565765 205.982986,278.925140 216.117432,283.006287 
	C213.568100,286.462189 211.214005,290.004364 208.489441,293.233978 
	C206.375793,295.739441 206.509460,297.704956 208.468246,300.206055 
	C211.405777,303.956879 214.025665,307.956451 216.780624,311.850250 
	C216.609344,312.320648 216.438065,312.791046 216.266785,313.261444 
	C212.194183,312.841858 207.436768,313.574249 204.243347,311.675812 
	C201.106903,309.811188 199.559311,305.273956 196.543564,300.754181 
	C196.323929,305.600342 196.170578,308.984344 196.003525,312.670258 
	C192.708969,312.670258 189.783035,312.670258 185.944397,312.670258 
	C185.944397,307.979706 185.944397,303.237030 185.944366,297.995117 
z"/>
<path fill="#461816" opacity="1.000000" stroke="none" 
	d="
M292.493011,299.514221 
	C290.111359,305.955200 287.998779,312.083191 285.626251,318.108826 
	C283.793091,322.764618 280.885376,326.889557 275.650238,327.677979 
	C269.034576,328.674286 265.093567,328.723999 267.269165,319.648743 
	C275.270630,320.083557 277.928680,316.318329 274.982483,308.698944 
	C271.643433,300.063629 268.289764,291.433899 264.975159,282.886078 
	C265.731354,282.437836 265.988464,282.159515 266.263275,282.140747 
	C276.347931,281.451599 276.337433,281.458038 279.094879,290.851837 
	C279.920868,293.665710 280.824921,296.456635 282.727966,299.313385 
	C283.774658,295.950012 284.850037,292.595245 285.862305,289.221588 
	C288.314026,281.050659 288.916107,280.707916 298.402222,282.815369 
	C296.470551,288.303314 294.560364,293.730255 292.493011,299.514221 
z"/>
<path fill="#461816" opacity="1.000000" stroke="none" 
	d="
M178.158417,293.040649 
	C179.777847,307.453156 172.471558,315.369751 159.153259,313.942780 
	C153.122101,313.296570 148.129349,310.681152 146.223862,304.556854 
	C144.103195,297.740967 144.122086,290.889435 149.519791,285.392151 
	C158.301682,276.448181 174.536880,280.655151 178.158417,293.040649 
M157.215057,291.978851 
	C156.807938,293.895172 156.102921,295.803528 156.051636,297.729340 
	C155.917770,302.754456 158.462219,306.260376 161.996643,305.881592 
	C166.656647,305.382111 167.486053,301.729034 167.810013,297.912598 
	C167.892990,296.935120 167.820251,295.914276 167.634247,294.948975 
	C166.509537,289.112061 162.523300,287.679932 157.215057,291.978851 
z"/>
<path fill="#461816" opacity="1.000000" stroke="none" 
	d="
M115.267319,281.936829 
	C116.963440,281.568481 118.252319,281.125244 119.562912,281.047333 
	C126.349648,280.643951 132.870193,281.508270 136.396286,288.209351 
	C139.790527,294.659851 139.715836,301.523468 135.649429,307.694489 
	C131.551666,313.913147 124.973289,314.642059 118.272896,313.813782 
	C110.766098,312.885773 106.285881,308.174805 105.255371,300.799561 
	C103.994164,291.773346 107.045753,285.816315 115.267319,281.936829 
M116.040932,295.852631 
	C116.213722,297.816467 116.060402,299.881927 116.633347,301.721100 
	C117.565796,304.714294 119.815346,306.668945 123.057358,305.701813 
	C127.343872,304.423065 127.890518,300.598053 127.800896,296.831757 
	C127.718430,293.365906 126.826302,289.909332 122.805351,289.253510 
	C118.685982,288.581665 116.957191,291.477386 116.040932,295.852631 
z"/>
<path fill="#471A17" opacity="1.000000" stroke="none" 
	d="
M243.555389,281.415924 
	C245.111160,271.390930 247.540985,268.147980 254.363617,267.095215 
	C261.851501,265.939758 263.542908,267.720337 262.263458,275.411682 
	C255.631439,275.129486 255.046707,275.629913 255.394440,281.561584 
	C257.262054,281.817932 259.180664,282.081238 261.424500,282.389191 
	C261.424500,284.749023 261.424500,286.984772 261.424500,289.558380 
	C259.421448,289.836334 257.524506,290.099548 255.109314,290.434692 
	C255.109314,297.762543 255.109314,305.000885 255.109314,312.622314 
	C251.367966,312.622314 248.163147,312.622314 244.331223,312.622314 
	C244.331223,305.250336 244.331223,298.016083 244.331223,290.411255 
	C240.442719,290.433472 238.894394,289.032867 239.101913,285.335236 
	C239.279068,282.178375 241.041260,281.956604 243.555389,281.415924 
z"/>
<path fill="#451515" opacity="1.000000" stroke="none" 
	d="
M221.880798,297.998413 
	C221.880737,292.551544 221.880737,287.603088 221.880737,282.333801 
	C225.393143,282.333801 228.316772,282.333801 231.753174,282.333801 
	C231.753174,292.326324 231.753174,302.322723 231.753174,312.661713 
	C228.694595,312.661713 225.766739,312.661713 221.880859,312.661713 
	C221.880859,307.983704 221.880859,303.240265 221.880798,297.998413 
z"/>
<path fill="#471917" opacity="1.000000" stroke="none" 
	d="
M232.198578,270.010132 
	C233.709274,276.126007 232.362579,278.678101 227.880722,278.991608 
	C223.885345,279.271088 221.250931,277.064209 221.269547,273.453339 
	C221.288116,269.846130 223.944122,267.583588 227.952515,268.072601 
	C229.329163,268.240570 230.617889,269.129181 232.198578,270.010132 
z"/>
<path fill="#413936" opacity="1.000000" stroke="none" 
	d="
M240.908142,212.788177 
	C238.290924,221.051254 235.713486,222.987549 227.441391,222.995209 
	C199.615112,223.020981 171.781403,222.650116 143.966949,223.224548 
	C135.605118,223.397247 128.396805,222.101669 122.353188,216.490753 
	C114.004776,208.740021 108.933800,199.692230 111.975014,187.648499 
	C112.338783,186.207886 111.140091,183.957230 110.019142,182.626663 
	C104.093010,175.592361 104.609276,169.301529 111.845482,163.532684 
	C114.995865,161.021133 114.932327,155.878448 111.478828,153.181961 
	C109.947151,151.986008 107.968025,151.350739 106.167442,150.513824 
	C99.519150,147.423691 96.060608,139.914185 99.220398,133.484756 
	C101.185989,129.485275 99.792397,127.107811 97.672745,124.119049 
	C92.120537,116.290359 88.807800,107.599129 90.372604,97.897598 
	C92.669945,83.654373 103.621307,74.197334 118.754875,74.111015 
	C163.575409,73.855339 208.398392,73.976692 253.220230,74.060249 
	C260.557312,74.073921 266.079041,78.385612 266.902893,84.065308 
	C267.874512,90.763680 263.202881,98.129143 255.650238,100.401291 
	C251.322540,101.703239 249.181290,104.302635 248.281433,108.234673 
	C247.403748,112.069717 247.985687,115.155144 252.251099,117.255920 
	C259.933868,121.039795 261.399506,129.689209 255.273285,135.975403 
	C251.920776,139.415421 251.033279,142.303268 252.612381,146.920029 
	C255.641510,155.776199 251.311646,163.363907 247.450043,170.985260 
	C246.473373,172.912842 245.893433,175.602493 246.404083,177.619720 
	C248.078979,184.235931 245.991989,190.110260 240.119034,193.429657 
	C232.294617,197.852036 232.165222,199.362732 238.047684,205.779770 
	C239.586319,207.458221 240.006241,210.162201 240.908142,212.788177 
M175.500000,220.984741 
	C191.992722,220.984619 208.485504,221.001877 224.978119,220.961624 
	C226.961227,220.956787 229.362411,221.283859 230.834030,220.326294 
	C233.434601,218.634140 236.708694,216.381012 237.357956,213.778244 
	C237.902374,211.595840 235.121201,208.573380 233.785934,205.936295 
	C232.879959,204.147003 231.348785,202.454758 231.111298,200.589951 
	C230.526825,196.000610 232.971008,193.302368 237.293854,191.619156 
	C243.557175,189.180344 245.866577,183.488876 242.718246,177.899155 
	C240.940826,174.743408 241.758987,173.061859 243.789795,170.530991 
	C250.088440,162.681442 252.886047,153.822342 248.718109,144.063324 
	C247.104889,140.286041 247.581467,138.451111 251.070847,136.024673 
	C258.638580,130.762222 257.320587,122.554817 248.807617,118.888992 
	C247.677185,118.402214 246.464691,117.489685 245.883545,116.444443 
	C242.349503,110.087952 247.239426,99.354965 254.229919,97.867668 
	C259.927887,96.655365 264.422333,90.739189 263.957550,85.062881 
	C263.548126,80.062660 259.479492,77.154350 252.558243,77.034218 
	C248.228088,76.959053 243.895630,77.015297 239.564194,77.015289 
	C199.914886,77.015221 160.265549,76.983597 120.616310,77.032959 
	C106.079071,77.051056 96.342880,84.073746 93.680649,96.584457 
	C91.438339,107.121841 94.800018,116.381119 101.427452,124.428017 
	C104.212616,127.809715 105.933701,130.477478 101.927841,134.006348 
	C101.218346,134.631363 101.144424,136.155151 101.061874,137.284729 
	C100.642281,143.026794 103.903938,146.309662 110.262642,149.298996 
	C113.082664,150.624741 115.574066,154.126358 116.693504,157.195145 
	C117.918564,160.553528 117.305038,164.228653 113.177513,166.539017 
	C107.822479,169.536499 107.191315,176.357544 112.112350,180.310699 
	C115.644615,183.148239 116.572456,185.683044 114.480362,189.599426 
	C113.971016,190.552917 114.075958,191.873947 114.032677,193.030991 
	C113.555176,205.794678 126.017532,221.293701 141.515152,221.017532 
	C152.506805,220.821640 163.504822,220.982880 175.500000,220.984741 
z"/>
<path fill="#87944C" opacity="1.000000" stroke="none" 
	d="
M84.174454,304.625366 
	C81.858574,304.766205 79.926781,304.766205 77.670135,304.766205 
	C77.670135,301.546814 77.670135,298.646576 77.670135,295.508881 
	C81.521461,294.632141 85.183540,294.183258 87.348862,298.089661 
	C88.970177,301.014587 87.179543,303.081024 84.174454,304.625366 
z"/>
<path fill="#86924C" opacity="1.000000" stroke="none" 
	d="
M84.446182,279.066467 
	C85.027023,281.032806 86.115273,283.762207 85.398796,284.372375 
	C83.536217,285.958527 80.880875,286.613800 77.708649,288.006226 
	C77.708649,283.878265 77.708649,281.189575 77.708649,277.747833 
	C80.117500,278.166412 82.124397,278.515167 84.446182,279.066467 
z"/>
<path fill="#89984E" opacity="1.000000" stroke="none" 
	d="
M157.444931,291.657501 
	C162.523300,287.679932 166.509537,289.112061 167.634247,294.948975 
	C167.820251,295.914276 167.892990,296.935120 167.810013,297.912598 
	C167.486053,301.729034 166.656647,305.382111 161.996643,305.881592 
	C158.462219,306.260376 155.917770,302.754456 156.051636,297.729340 
	C156.102921,295.803528 156.807938,293.895172 157.444931,291.657501 
z"/>
<path fill="#89984E" opacity="1.000000" stroke="none" 
	d="
M116.082123,295.440674 
	C116.957191,291.477386 118.685982,288.581665 122.805351,289.253510 
	C126.826302,289.909332 127.718430,293.365906 127.800896,296.831757 
	C127.890518,300.598053 127.343872,304.423065 123.057358,305.701813 
	C119.815346,306.668945 117.565796,304.714294 116.633347,301.721100 
	C116.060402,299.881927 116.213722,297.816467 116.082123,295.440674 
z"/>
<path fill="#504542" opacity="1.000000" stroke="none" 
	d="
M175.000000,220.984741 
	C163.504822,220.982880 152.506805,220.821640 141.515152,221.017532 
	C126.017532,221.293701 113.555176,205.794678 114.032677,193.030991 
	C114.075958,191.873947 113.971016,190.552917 114.480362,189.599426 
	C116.572456,185.683044 115.644615,183.148239 112.112350,180.310699 
	C107.191315,176.357544 107.822479,169.536499 113.177513,166.539017 
	C117.305038,164.228653 117.918564,160.553528 116.693504,157.195145 
	C115.574066,154.126358 113.082664,150.624741 110.262642,149.298996 
	C103.903938,146.309662 100.642281,143.026794 101.061874,137.284729 
	C101.144424,136.155151 101.218346,134.631363 101.927841,134.006348 
	C105.933701,130.477478 104.212616,127.809715 101.427452,124.428017 
	C94.800018,116.381119 91.438339,107.121841 93.680649,96.584457 
	C96.342880,84.073746 106.079071,77.051056 120.616310,77.032959 
	C160.265549,76.983597 199.914886,77.015221 239.564194,77.015289 
	C243.895630,77.015297 248.228088,76.959053 252.558243,77.034218 
	C259.479492,77.154350 263.548126,80.062660 263.957550,85.062881 
	C264.422333,90.739189 259.927887,96.655365 254.229919,97.867668 
	C247.239426,99.354965 242.349503,110.087952 245.883545,116.444443 
	C246.464691,117.489685 247.677185,118.402214 248.807617,118.888992 
	C257.320587,122.554817 258.638580,130.762222 251.070847,136.024673 
	C247.581467,138.451111 247.104889,140.286041 248.718109,144.063324 
	C252.886047,153.822342 250.088440,162.681442 243.789795,170.530991 
	C241.758987,173.061859 240.940826,174.743408 242.718246,177.899155 
	C245.866577,183.488876 243.557175,189.180344 237.293854,191.619156 
	C232.971008,193.302368 230.526825,196.000610 231.111298,200.589951 
	C231.348785,202.454758 232.879959,204.147003 233.785934,205.936295 
	C235.121201,208.573380 237.902374,211.595840 237.357956,213.778244 
	C236.708694,216.381012 233.434601,218.634140 230.834030,220.326294 
	C229.362411,221.283859 226.961227,220.956787 224.978119,220.961624 
	C208.485504,221.001877 191.992722,220.984619 175.000000,220.984741 
M232.668961,188.032135 
	C233.327652,187.997147 233.989075,187.989014 234.644592,187.922592 
	C237.847687,187.598022 240.064316,185.963486 240.057632,182.643982 
	C240.049957,178.839859 236.983215,179.044464 234.308075,178.936844 
	C231.842667,178.837692 229.379807,178.674713 227.509216,178.251099 
	C229.001175,177.510193 230.558228,176.875870 231.974472,176.010986 
	C240.803528,170.619247 246.328461,163.191742 246.177155,152.402771 
	C246.043167,142.848572 240.103012,137.762772 232.985504,134.066788 
	C236.626328,134.047272 240.267303,134.041809 243.907959,134.004532 
	C248.063828,133.961960 251.314392,132.198395 251.569031,127.874565 
	C251.842621,123.228722 248.052292,123.012909 244.582336,122.947098 
	C244.087357,122.937714 243.593735,122.857925 243.013763,122.058487 
	C242.325897,117.416084 240.480179,112.568367 241.257278,108.185722 
	C242.134216,103.240074 245.370346,98.712746 248.274063,93.831909 
	C250.247040,93.597237 252.297028,93.624420 254.176422,93.071594 
	C257.728546,92.026718 259.912537,89.475510 259.740631,85.722633 
	C259.581635,82.252144 257.126190,81.102211 253.837433,81.104866 
	C208.581299,81.141365 163.324554,81.014343 118.069298,81.221970 
	C104.597908,81.283775 95.391472,93.001701 97.673653,106.347649 
	C100.153709,120.850845 109.099045,129.518661 121.938919,133.804077 
	C117.948883,133.909698 113.925613,133.750412 109.984367,134.244873 
	C108.291534,134.457275 105.586342,135.869415 105.433548,137.015457 
	C105.174591,138.957718 105.977142,142.020767 107.419586,142.980713 
	C109.575180,144.415283 112.672417,144.434906 115.662651,145.732117 
	C121.251457,152.766098 123.356750,160.436432 119.220268,169.323563 
	C116.698425,170.289932 112.481964,169.344223 113.070503,174.000732 
	C113.591949,178.126556 116.785698,179.022293 120.432907,179.010361 
	C123.412849,179.000595 126.393280,179.140076 128.794449,179.603104 
	C122.085075,182.514923 117.906197,187.351746 118.188667,194.923782 
	C118.620819,206.508133 129.065033,216.800003 140.653030,216.859467 
	C169.570679,217.007874 198.489609,216.893295 227.407928,216.944260 
	C230.602768,216.949890 233.368637,216.098755 233.648560,212.686066 
	C233.971329,208.750900 230.455383,209.258652 227.824677,208.043411 
	C224.923111,200.529694 227.618515,194.141281 232.668961,188.032135 
z"/>
<path fill="#FA9C5E" opacity="1.000000" stroke="none" 
	d="
M122.825081,133.749588 
	C109.099045,129.518661 100.153709,120.850845 97.673653,106.347649 
	C95.391472,93.001701 104.597908,81.283775 118.069298,81.221970 
	C163.324554,81.014343 208.581299,81.141365 253.837433,81.104866 
	C257.126190,81.102211 259.581635,82.252144 259.740631,85.722633 
	C259.912537,89.475510 257.728546,92.026718 254.176422,93.071594 
	C252.297028,93.624420 250.247040,93.597237 247.425842,93.859573 
	C242.032715,93.941307 237.487808,93.995377 232.482269,93.995605 
	C216.253403,93.917465 200.485153,93.907715 184.716995,93.865341 
	C163.142654,93.807373 141.568390,93.724609 119.868706,93.584526 
	C119.442680,93.456215 119.185547,93.539124 118.641151,93.911087 
	C110.220375,97.314926 107.155586,103.456261 110.148605,110.990631 
	C112.572357,117.091988 116.835838,121.249863 124.018517,122.439209 
	C126.412224,122.676971 128.401443,122.826820 130.390701,122.827095 
	C167.960297,122.832191 205.529892,122.819611 243.099487,122.810715 
	C243.593735,122.857925 244.087357,122.937714 244.582336,122.947098 
	C248.052292,123.012909 251.842621,123.228722 251.569031,127.874565 
	C251.314392,132.198395 248.063828,133.961960 243.907959,134.004532 
	C240.267303,134.041809 236.626328,134.047272 232.086243,134.095337 
	C228.112244,134.181580 225.037521,134.239258 221.507095,134.191803 
	C217.561829,134.048630 214.072327,133.986145 210.582672,133.976456 
	C181.330170,133.895340 152.077621,133.823929 122.825081,133.749588 
z"/>
<path fill="#FCF5E6" opacity="1.000000" stroke="none" 
	d="
M119.934494,169.116547 
	C123.356750,160.436432 121.251457,152.766098 116.027298,145.392395 
	C151.519562,145.023499 186.647476,144.924026 221.774384,145.069168 
	C225.462936,145.084381 229.145538,146.542435 233.003876,147.633255 
	C238.312012,155.715515 237.318848,160.556839 228.614807,168.160126 
	C222.850220,168.557617 217.506104,168.919098 212.117050,168.842484 
	C212.321289,165.603058 212.570465,162.801727 213.245163,159.980240 
	C214.996216,159.890427 216.455231,160.144348 217.612595,159.666931 
	C218.973724,159.105453 220.073151,157.909515 221.286072,156.988708 
	C219.930939,156.345596 218.621628,155.556412 217.204208,155.112030 
	C216.295624,154.827194 215.227646,155.047134 214.231110,155.047058 
	C195.462631,155.045670 176.694153,155.042084 157.925674,155.047989 
	C155.102722,155.048874 152.248642,154.862366 149.472092,155.234100 
	C148.355087,155.383667 147.408142,156.803406 146.383789,157.645065 
	C147.355682,158.378891 148.239410,159.322815 149.327606,159.779434 
	C150.182983,160.138351 151.291656,159.935272 152.286392,159.914093 
	C166.216660,159.617355 180.146683,159.308975 194.087189,159.464264 
	C193.971954,163.047318 193.846313,166.169525 193.269836,169.290863 
	C190.322586,169.275452 187.826202,169.252808 185.329803,169.247604 
	C163.531372,169.202148 141.732925,169.159805 119.934494,169.116547 
z"/>
<path fill="#F97992" opacity="1.000000" stroke="none" 
	d="
M227.944000,208.835037 
	C230.455383,209.258652 233.971329,208.750900 233.648560,212.686066 
	C233.368637,216.098755 230.602768,216.949890 227.407928,216.944260 
	C198.489609,216.893295 169.570679,217.007874 140.653030,216.859467 
	C129.065033,216.800003 118.620819,206.508133 118.188667,194.923782 
	C117.906197,187.351746 122.085075,182.514923 129.521759,179.404083 
	C151.355560,179.098160 172.462067,178.991257 193.638992,179.311371 
	C193.476440,182.481293 193.243484,185.224243 192.540771,187.966797 
	C173.762619,187.997284 155.454102,187.998337 137.145950,188.081604 
	C132.956375,188.100662 129.028259,189.061096 127.451050,193.588135 
	C125.835114,198.226349 127.440849,202.383881 131.014648,205.219330 
	C133.338425,207.063019 136.635315,208.656723 139.509003,208.678497 
	C165.967850,208.878952 192.429459,208.711517 219.337601,208.742752 
	C222.504623,208.834564 225.224304,208.834793 227.944000,208.835037 
z"/>
<path fill="#5FA0A3" opacity="1.000000" stroke="none" 
	d="
M232.830902,147.331085 
	C229.145538,146.542435 225.462936,145.084381 221.774384,145.069168 
	C186.647476,144.924026 151.519562,145.023499 115.880516,145.054550 
	C112.672417,144.434906 109.575180,144.415283 107.419586,142.980713 
	C105.977142,142.020767 105.174591,138.957718 105.433548,137.015457 
	C105.586342,135.869415 108.291534,134.457275 109.984367,134.244873 
	C113.925613,133.750412 117.948883,133.909698 122.382004,133.776825 
	C152.077621,133.823929 181.330170,133.895340 210.582672,133.976456 
	C214.072327,133.986145 217.561829,134.048630 221.667282,134.472687 
	C227.025009,137.979416 232.471817,140.503937 232.830902,147.331085 
z"/>
<path fill="#63A2A5" opacity="1.000000" stroke="none" 
	d="
M193.568573,178.884369 
	C172.462067,178.991257 151.355560,179.098160 129.811279,179.209229 
	C126.393280,179.140076 123.412849,179.000595 120.432907,179.010361 
	C116.785698,179.022293 113.591949,178.126556 113.070503,174.000732 
	C112.481964,169.344223 116.698425,170.289932 119.577377,169.220062 
	C141.732925,169.159805 163.531372,169.202148 185.329803,169.247604 
	C187.826202,169.252808 190.322586,169.275452 193.311249,169.720139 
	C193.725220,173.061646 193.646896,175.973007 193.568573,178.884369 
z"/>
<path fill="#439194" opacity="1.000000" stroke="none" 
	d="
M233.003876,147.633255 
	C232.471817,140.503937 227.025009,137.979416 222.122971,134.577835 
	C225.037521,134.239258 228.112244,134.181580 231.640320,134.218430 
	C240.103012,137.762772 246.043167,142.848572 246.177155,152.402771 
	C246.328461,163.191742 240.803528,170.619247 231.974472,176.010986 
	C230.558228,176.875870 229.001175,177.510193 226.778275,178.484772 
	C223.359756,178.741333 220.672195,178.764206 218.132507,178.491867 
	C219.787811,177.315201 221.556686,176.693665 222.746628,175.496628 
	C225.017227,173.212463 226.957748,170.600174 229.035278,168.124100 
	C237.318848,160.556839 238.312012,155.715515 233.003876,147.633255 
z"/>
<path fill="#F4E3CB" opacity="1.000000" stroke="none" 
	d="
M243.056625,122.434601 
	C205.529892,122.819611 167.960297,122.832191 130.390701,122.827095 
	C128.401443,122.826820 126.412224,122.676971 124.513229,122.343231 
	C159.811676,122.089714 195.019882,122.089714 229.494278,122.089714 
	C229.494278,114.883438 229.110321,109.031235 229.647217,103.264771 
	C229.940216,100.117989 231.793365,97.116470 232.942902,94.049438 
	C237.487808,93.995377 242.032715,93.941307 247.079025,93.945366 
	C245.370346,98.712746 242.134216,103.240074 241.257278,108.185722 
	C240.480179,112.568367 242.325897,117.416084 243.056625,122.434601 
z"/>
<path fill="#F77A92" opacity="1.000000" stroke="none" 
	d="
M217.984619,178.787094 
	C220.672195,178.764206 223.359756,178.741333 226.481583,178.629150 
	C229.379807,178.674713 231.842667,178.837692 234.308075,178.936844 
	C236.983215,179.044464 240.049957,178.839859 240.057632,182.643982 
	C240.064316,185.963486 237.847687,187.598022 234.644592,187.922592 
	C233.989075,187.989014 233.327652,187.997147 231.809662,188.052277 
	C227.929916,188.131729 224.909485,188.191071 221.449493,188.182312 
	C218.009201,188.131287 215.008453,188.148361 211.722198,188.075806 
	C211.042542,187.938187 210.648361,187.890182 210.257294,187.445999 
	C210.585205,184.328323 210.910034,181.606827 211.654312,178.913177 
	C214.044037,178.889725 216.014328,178.838409 217.984619,178.787094 
z"/>
<path fill="#F5E2CF" opacity="1.000000" stroke="none" 
	d="
M221.889038,188.250412 
	C224.909485,188.191071 227.929916,188.131729 231.396423,188.066315 
	C227.618515,194.141281 224.923111,200.529694 227.884338,208.439224 
	C225.224304,208.834793 222.504623,208.834564 219.356903,208.347137 
	C217.042770,200.889755 218.250931,194.386673 221.889038,188.250412 
z"/>
<path fill="#FFF7E8" opacity="1.000000" stroke="none" 
	d="
M232.482269,93.995605 
	C231.793365,97.116470 229.940216,100.117989 229.647217,103.264771 
	C229.110321,109.031235 229.494278,114.883438 229.494278,122.089714 
	C195.019882,122.089714 159.811676,122.089714 124.108765,122.185684 
	C116.835838,121.249863 112.572357,117.091988 110.148605,110.990631 
	C107.155586,103.456261 110.220375,97.314926 118.902237,93.931206 
	C119.660751,93.754509 119.827423,93.703491 119.994095,93.652481 
	C141.568390,93.724609 163.142654,93.807373 184.716995,93.865341 
	C200.485153,93.907715 216.253403,93.917465 232.482269,93.995605 
z"/>
<path fill="#EAA474" opacity="1.000000" stroke="none" 
	d="
M119.868706,93.584526 
	C119.827423,93.703491 119.660751,93.754509 119.233002,93.785416 
	C119.185547,93.539124 119.442680,93.456215 119.868706,93.584526 
z"/>
<path fill="#FFE7BC" opacity="1.000000" stroke="none" 
	d="
M194.076767,159.003448 
	C180.146683,159.308975 166.216660,159.617355 152.286392,159.914093 
	C151.291656,159.935272 150.182983,160.138351 149.327606,159.779434 
	C148.239410,159.322815 147.355682,158.378891 146.383789,157.645065 
	C147.408142,156.803406 148.355087,155.383667 149.472092,155.234100 
	C152.248642,154.862366 155.102722,155.048874 157.925674,155.047989 
	C176.694153,155.042084 195.462631,155.045670 214.231110,155.047058 
	C215.227646,155.047134 216.295624,154.827194 217.204208,155.112030 
	C218.621628,155.556412 219.930939,156.345596 221.286072,156.988708 
	C220.073151,157.909515 218.973724,159.105453 217.612595,159.666931 
	C216.455231,160.144348 214.996216,159.890427 212.891357,159.824005 
	C209.154694,159.567337 206.197342,159.446747 202.773743,159.248047 
	C199.563919,159.114441 196.820343,159.058945 194.076767,159.003448 
z"/>
<path fill="#FEC965" opacity="1.000000" stroke="none" 
	d="
M203.239975,159.326157 
	C206.197342,159.446747 209.154694,159.567337 212.465851,159.844162 
	C212.570465,162.801727 212.321289,165.603058 211.996002,169.208725 
	C211.691544,172.970474 211.463211,175.927902 211.234879,178.885315 
	C210.910034,181.606827 210.585205,184.328323 210.228119,187.749908 
	C210.206650,188.652283 210.217422,188.854568 210.146698,189.447693 
	C209.866165,191.502716 209.667130,193.166901 209.382095,195.550110 
	C206.414490,193.184631 204.254105,191.462570 202.071213,189.290588 
	C202.445801,179.002502 202.842896,169.164322 203.239975,159.326157 
z"/>
<path fill="#FED891" opacity="1.000000" stroke="none" 
	d="
M202.773743,159.248047 
	C202.842896,169.164322 202.445801,179.002502 201.721893,189.383453 
	C198.962372,191.576462 196.529694,193.226700 193.466644,195.304550 
	C193.269699,192.136246 193.140106,190.051712 193.010529,187.967178 
	C193.243484,185.224243 193.476440,182.481293 193.638992,179.311371 
	C193.646896,175.973007 193.725220,173.061646 193.762115,169.721008 
	C193.846313,166.169525 193.971954,163.047318 194.087189,159.464279 
	C196.820343,159.058945 199.563919,159.114441 202.773743,159.248047 
z"/>
<path fill="#66A2A4" opacity="1.000000" stroke="none" 
	d="
M211.654312,178.913177 
	C211.463211,175.927902 211.691544,172.970474 212.040924,169.646820 
	C217.506104,168.919098 222.850220,168.557617 228.614807,168.160126 
	C226.957748,170.600174 225.017227,173.212463 222.746628,175.496628 
	C221.556686,176.693665 219.787811,177.315201 218.132507,178.491867 
	C216.014328,178.838409 214.044037,178.889725 211.654312,178.913177 
z"/>
<path fill="#FEF6E7" opacity="1.000000" stroke="none" 
	d="
M192.540771,187.966797 
	C193.140106,190.051712 193.269699,192.136246 193.466644,195.304550 
	C196.529694,193.226700 198.962372,191.576462 201.744385,189.833374 
	C204.254105,191.462570 206.414490,193.184631 209.382095,195.550110 
	C209.667130,193.166901 209.866165,191.502716 210.392197,189.387909 
	C211.148697,188.679977 211.578201,188.422699 212.007706,188.165421 
	C215.008453,188.148361 218.009201,188.131287 221.449493,188.182312 
	C218.250931,194.386673 217.042770,200.889755 218.909576,208.255554 
	C192.429459,208.711517 165.967850,208.878952 139.509003,208.678497 
	C136.635315,208.656723 133.338425,207.063019 131.014648,205.219330 
	C127.440849,202.383881 125.835114,198.226349 127.451050,193.588135 
	C129.028259,189.061096 132.956375,188.100662 137.145950,188.081604 
	C155.454102,187.998337 173.762619,187.997284 192.540771,187.966797 
z"/>
<path fill="#F5E2CF" opacity="1.000000" stroke="none" 
	d="
M211.722198,188.075806 
	C211.578201,188.422699 211.148697,188.679977 210.473694,188.997040 
	C210.217422,188.854568 210.206650,188.652283 210.225037,188.146072 
	C210.648361,187.890182 211.042542,187.938187 211.722198,188.075806 
z"/>
</svg>